<?xml version="1.0" encoding="UTF-8"?>
<svg xmlns="http://www.w3.org/2000/svg" version="1.1" viewBox="0 0 539.8 206.2">
  <defs>
    <style>
      .cls-1 {
        fill: #299bd7;
      }

      .cls-2 {
        fill: #fff;
      }

      .cls-3 {
        fill: #6bb332;
      }
    </style>
  </defs>
  <!-- Generator: Adobe Illustrator 28.7.1, SVG Export Plug-In . SVG Version: 1.2.0 Build 142)  -->
  <g>
    <g id="Ebene_1">
      <g id="Ebene_1-2" data-name="Ebene_1">
        <path class="cls-2" d="M152.1,124.6v-44.8h17.2c9.8,0,14.2,7.5,14.2,15s-4.4,14.9-14.2,14.9h-7.1v15h-10.1ZM162.2,89.2v11h6.6c3.3,0,4.5-2.9,4.5-5.5s-1.2-5.5-4.5-5.5h-6.6s0,0,0,0Z"/>
        <path class="cls-2" d="M193.6,124.6v-44.8h10.2v35.3h15v9.5h-25.2Z"/>
        <path class="cls-2" d="M256,114.3h-13.1l-3.5,10.3h-10.8l15.3-44.8h10.9l15.2,44.8h-10.7l-3.4-10.3h0ZM245.7,104.9h7.7l-4.1-14.8-3.7,14.8Z"/>
        <path class="cls-2" d="M313.7,114.6c-3.6,6.1-10.1,9.9-17.1,10-11.3,0-20.5-10.1-20.5-22.3s9.2-22.3,20.5-22.3c7.1,0,13.6,3.9,17.2,10,.7-.6-8.1,6.1-8.1,6.1-1.8-3.3-5.3-5.4-9-5.5-6,0-10.6,5.3-10.6,11.7s4.6,11.7,10.6,11.7c3.8,0,7.3-2.1,9.1-5.4l8,6.1h0Z"/>
        <path class="cls-2" d="M324.8,124.6v-44.8h27v9.5h-16.9v8.6h14.8v9.3h-14.8v7.9h16.9v9.5h-27Z"/>
        <path class="cls-2" d="M363.3,89.3v-9.5h31.5v9.5h-10.7v35.3h-10.1v-35.3h-10.7Z"/>
        <path class="cls-2" d="M406.2,124.6v-44.8h27v9.5h-16.9v8.6h14.8v9.3h-14.8v7.9h16.9v9.5h-27Z"/>
        <path class="cls-2" d="M444.7,124.6v-44.8h10.2v35.3h15v9.5h-25.2Z"/>
        <g>
          <path id="Pfad_2507" class="cls-1" d="M96,135.8c-18.6,0-33.6-15.1-33.6-33.6s15-33.6,33.6-33.6,33.6,15.1,33.6,33.6c0,18.6-15.1,33.6-33.6,33.6ZM96,87.8c-7.9,0-14.4,6.4-14.4,14.4s6.4,14.4,14.4,14.4,14.4-6.4,14.4-14.4-6.4-14.4-14.4-14.4h0Z"/>
          <rect id="Rechteck_118" class="cls-3" x="62.4" y="102.1" width="19.2" height="44.8"/>
        </g>
        <g>
          <path class="cls-2" d="M286.8,153.1h-6.6l-1.7,3.7h-2.5l7.6-16.3,7.3,16.3h-2.5l-1.6-3.7h0ZM285.8,150.9l-2.3-5.2-2.4,5.2h4.6Z"/>
          <path class="cls-2" d="M305.5,148.4h7.6v.2c0,1.9-.7,4.7-2.4,6.5-1.7,1.8-3.7,2.1-5.5,2.1s-3.8-.3-5.6-2.1-2.3-2.8-2.3-5.9.9-4.5,2.2-5.8c1.9-2,4.2-2.2,6-2.2s2.9.2,4.3,1.1c1,.7,1.9,1.8,2.5,2.7l-3.2,1.7c-.3-.6-.8-1.2-1.4-1.7-.7-.5-1.5-.7-2.4-.7-1.4,0-2.4.5-3.2,1.2-.9.9-1.3,2.2-1.3,3.6s.6,2.9,1.3,3.5c.9.9,1.9,1.2,3.1,1.2s2.3-.5,2.7-.8c.1,0,.8-.7,1.1-1.8h-3.7v-2.9h0Z"/>
          <path class="cls-2" d="M322.8,146.5h3.3v10.3h-3.3v-1.2c-.9,1.4-2.2,1.6-3,1.6-1.5,0-2.7-.4-3.9-1.6-1.1-1.1-1.5-2.5-1.5-3.9s.6-3.2,1.6-4.1c.9-.9,2.1-1.4,3.6-1.4s2.3.2,3.2,1.5v-1.1h0ZM318.5,149.8c-.4.4-.8.9-.8,1.9s.4,1.5.7,1.8c.5.5,1.2.8,2,.8s1.3-.3,1.7-.7c.4-.4.8-1.1.8-1.9s-.3-1.4-.8-1.9c-.5-.5-1.2-.7-1.8-.7s-1.4.3-1.8.7h0Z"/>
          <path class="cls-2" d="M328.7,146.5h3.3v1.2c.9-1.3,2.1-1.4,2.9-1.4s1.2,0,1.9.5c.5.3,1,.8,1.2,1.4.2-.4.6-.9,1.3-1.3.7-.4,1.4-.6,2.2-.6,1.2,0,2.3.4,2.9,1,1,.9,1.1,2.3,1.1,3.1v6.5h-3.3v-5.2c0-.5,0-1.4-.4-2-.3-.4-.7-.6-1.2-.6s-1,.2-1.3.6c-.4.6-.5,1.4-.5,2v5.1h-3.3v-5.4c0-.7,0-1.5-.5-2-.4-.4-.8-.4-1.1-.4s-.8.1-1.1.4c-.6.6-.6,1.8-.6,2.1v5.2h-3.3v-10.3h0Z"/>
          <path class="cls-2" d="M348.1,146.5h3.3v1.2c.9-1.3,2.1-1.4,2.9-1.4s1.2,0,1.9.5c.5.3,1,.8,1.2,1.4.2-.4.6-.9,1.3-1.3.7-.4,1.4-.6,2.2-.6,1.2,0,2.3.4,2.9,1,1,.9,1.1,2.3,1.1,3.1v6.5h-3.3v-5.2c0-.5,0-1.4-.4-2-.3-.4-.7-.6-1.2-.6s-1,.2-1.3.6c-.4.6-.5,1.4-.5,2v5.1h-3.3v-5.4c0-.7,0-1.5-.5-2-.4-.4-.8-.4-1.1-.4s-.8.1-1.1.4c-.6.6-.6,1.8-.6,2.1v5.2h-3.3v-10.3h0Z"/>
          <path class="cls-2" d="M375.4,146.5h3.3v10.3h-3.3v-1.2c-.9,1.4-2.2,1.6-3,1.6-1.5,0-2.7-.4-3.9-1.6-1.1-1.1-1.5-2.5-1.5-3.9s.6-3.2,1.6-4.1c.9-.9,2.1-1.4,3.6-1.4s2.3.2,3.2,1.5v-1.1h0ZM371.2,149.8c-.4.4-.8.9-.8,1.9s.4,1.5.7,1.8c.5.5,1.2.8,2,.8s1.3-.3,1.7-.7c.4-.4.8-1.1.8-1.9s-.3-1.4-.8-1.9c-.5-.5-1.2-.7-1.8-.7s-1.4.3-1.8.7h0Z"/>
          <path class="cls-2" d="M394.3,150.1c-1-1-2-1.2-2.7-1.2-1.1,0-1.7.4-2.1.9-.4.4-.8,1.1-.8,2.2s.4,1.9.9,2.3c.5.5,1.2.8,2,.8s2-.4,2.8-1.2v2.5c-.5.4-1.5.8-3,.8s-2.8-.5-3.7-1.4c-.7-.7-1.4-1.9-1.4-3.6s.8-3,1.5-3.8c.8-.8,2-1.4,3.9-1.4s1.6.1,2.6.7v2.5h0Z"/>
          <path class="cls-2" d="M406.4,152c0,3-2.3,5.1-5.2,5.1s-5.2-2.2-5.2-5.1,2.3-5.1,5.2-5.1,5.2,2.1,5.2,5.1ZM404,152c0-2.2-1.5-3.1-2.9-3.1s-2.9.9-2.9,3.1,1.1,3.1,2.9,3.1,2.9-1.2,2.9-3.1Z"/>
          <path class="cls-2" d="M408.7,147.1h2.3v.9c.8-.9,1.7-1.1,2.4-1.1s2,.5,2.5,1.4c.8-1.1,2-1.4,2.9-1.4s2.2.6,2.8,1.5c.2.3.5,1,.5,2.4v6h-2.3v-5.4c0-1.1-.1-1.5-.2-1.7-.1-.4-.5-.9-1.3-.9s-1,.3-1.3.7c-.4.6-.4,1.4-.4,2.2v5h-2.3v-5.4c0-1.1-.1-1.5-.2-1.7-.1-.4-.5-.9-1.3-.9s-1,.3-1.3.7c-.4.6-.4,1.4-.4,2.2v5h-2.3v-9.7h0Z"/>
          <path class="cls-2" d="M427.1,162.1h-2.3v-15h2.3v1.1c.8-1,1.9-1.3,2.9-1.3,2.6,0,4.7,2,4.7,5.1s-2.4,5.2-4.7,5.2-1.9-.2-2.9-1.4v6.4h0ZM427,152c0,2,1.3,3.1,2.7,3.1s2.7-1.4,2.7-3.1-1.1-3.1-2.7-3.1-2.7,1-2.7,3.1h0Z"/>
          <path class="cls-2" d="M444.2,147.1h2.3v9.7h-2.3v-1c-1,1.1-2.2,1.3-2.9,1.3-3,0-4.7-2.5-4.7-5.2s2.2-5.1,4.7-5.1,2,.2,2.9,1.4v-1.1ZM438.9,152c0,1.7,1.1,3.1,2.7,3.1s2.7-1,2.7-3.1-1.3-3.1-2.7-3.1-2.7,1.4-2.7,3.1h0Z"/>
          <path class="cls-2" d="M449.3,147.1h2.3v.9c1-1.1,2.1-1.1,2.6-1.1,1.8,0,2.6.9,2.9,1.3.4.5.6,1.2.6,2.7v5.9h-2.3v-5.4c0-2.5-.9-2.5-1.8-2.5s-2,.1-2,3.3v4.6h-2.3v-9.7h0Z"/>
          <path class="cls-2" d="M463.3,155.3l-4.1-8.2h2.7l2.8,5.7,2.8-5.7h2.5l-7.7,15h-2.5l3.6-6.8h0Z"/>
        </g>
      </g>
    </g>
  </g>
</svg>